<?xml version="1.0" encoding="UTF-8" standalone="no"?>
<svg
   xmlns:dc="http://purl.org/dc/elements/1.1/"
   xmlns:cc="http://creativecommons.org/ns#"
   xmlns:rdf="http://www.w3.org/1999/02/22-rdf-syntax-ns#"
   xmlns:svg="http://www.w3.org/2000/svg"
   xmlns="http://www.w3.org/2000/svg"
   xmlns:sodipodi="http://sodipodi.sourceforge.net/DTD/sodipodi-0.dtd"
   xmlns:inkscape="http://www.inkscape.org/namespaces/inkscape"
   inkscape:version="1.0 (4035a4fb49, 2020-05-01)"
   sodipodi:docname="VV.svg"
   id="svg8"
   preserveAspectRatio="xMidYMid meet"
   viewBox="0 0 58.02549 78.944565"
   height="78.944565pt"
   width="58.02549pt"
   version="1.0">
  <metadata
     id="metadata14">
    <rdf:RDF>
      <cc:Work
         rdf:about="">
        <dc:format>image/svg+xml</dc:format>
        <dc:type
           rdf:resource="http://purl.org/dc/dcmitype/StillImage" />
        <dc:title></dc:title>
      </cc:Work>
    </rdf:RDF>
  </metadata>
  <defs
     id="defs12" />
  <sodipodi:namedview
     fit-margin-bottom="0"
     fit-margin-right="0"
     fit-margin-left="0"
     fit-margin-top="0"
     inkscape:pagecheckerboard="false"
     inkscape:current-layer="svg8"
     inkscape:window-maximized="1"
     inkscape:window-y="-8"
     inkscape:window-x="-8"
     inkscape:cy="57.342319"
     inkscape:cx="87.365814"
     inkscape:zoom="4.6527778"
     showgrid="false"
     id="namedview10"
     inkscape:window-height="1017"
     inkscape:window-width="1920"
     inkscape:pageshadow="2"
     inkscape:pageopacity="0"
     guidetolerance="10"
     gridtolerance="10"
     objecttolerance="10"
     borderopacity="1"
     bordercolor="#666666"
     pagecolor="#ffffff" />
  <g
     id="g6"
     stroke="none"
     fill="#000000"
     transform="matrix(0.1,0,0,-0.1,-26.177132,90.075399)">
    <path
       id="path2"
       d="M 374,865 C 367,846 360,800 360,763 360,726 349,646 335,585 304,452 274,279 265,188 c -6,-67 -6,-67 21,-74 36,-9 51,12 59,85 11,115 52,335 72,391 3,8 15,-34 28,-95 12,-60 34,-150 48,-200 14,-50 30,-109 37,-132 9,-35 15,-43 34,-43 48,0 48,16 0,203 -24,98 -58,252 -74,343 -17,91 -37,181 -45,200 -19,47 -51,46 -71,-1 z" />
    <path
       id="path4"
       d="m 771,863 c -6,-21 -11,-52 -11,-70 0,-31 -51,-298 -68,-358 -9,-28 -10,-27 -21,30 -19,98 -40,183 -74,305 -31,109 -34,115 -60,118 -17,2 -29,-2 -33,-12 -3,-9 17,-109 44,-223 28,-115 60,-264 72,-332 25,-145 39,-190 62,-205 38,-24 67,46 68,166 0,32 13,117 30,190 16,73 34,174 40,223 6,50 15,109 19,132 9,49 -2,73 -34,73 -19,0 -26,-7 -34,-37 z" />
  </g>
</svg>
